<svg xmlns="http://www.w3.org/2000/svg" viewBox="0 0 64 64">
  <circle cx="32" cy="32" r="32" fill="#1B2B3A"/>
  <g fill="white">
    <!-- Outer owl shape -->
    <path d="M32 10C20 10 12 20 12 30c0 12 8 22 20 22s20-10 20-22c0-10-8-20-20-20zm0 40c-10 0-16-8-16-18 0-8 6-18 16-18s16 10 16 18c0 10-6 18-16 18z"/>
    <!-- Left eye circle -->
    <circle cx="23" cy="28" r="8" fill="white"/>
    <circle cx="23" cy="28" r="4" fill="#1B2B3A"/>
    <!-- Right eye circle -->
    <circle cx="41" cy="28" r="8" fill="white"/>
    <circle cx="41" cy="28" r="4" fill="#1B2B3A"/>
    <!-- Beak/nose area -->
    <path d="M32 34c-2 0-3 1-3 3l3 5 3-5c0-2-1-3-3-3z"/>
    <!-- Eyebrow curves -->
    <path d="M15 22c2-4 6-6 10-6M49 22c-2-4-6-6-10-6" stroke="white" stroke-width="2" fill="none"/>
  </g>
</svg>
