<svg xmlns="http://www.w3.org/2000/svg" viewBox="0 0 100 100" fill="white">
  <!-- Gear outer shape -->
  <path d="M50 5
    L56 5 L58 15 C61 15.5 64 16.5 66.5 18 L74 11 L79 16 L72 24 C74 26.5 75.5 29.5 76.5 33 L86 35 L86 41 L76.5 43 C75.5 46 74 49 72 51.5 L79 59 L74 64 L66.5 57 C64 58.5 61 59.5 58 60 L56 70 L44 70 L42 60 C39 59.5 36 58.5 33.5 57 L26 64 L21 59 L28 51.5 C26 49 24.5 46 23.5 43 L14 41 L14 35 L23.5 33 C24.5 29.5 26 26.5 28 24 L21 16 L26 11 L33.5 18 C36 16.5 39 15.5 42 15 L44 5 Z"
    fill-rule="evenodd"/>

  <!-- Inner circle (cutout effect) -->
  <circle cx="50" cy="37.5" r="22" fill="#1e293b"/>

  <!-- White ring inside gear -->
  <circle cx="50" cy="37.5" r="18" fill="none" stroke="white" stroke-width="2"/>

  <!-- Shield shape -->
  <path d="M50 22
    C50 22 38 24 38 24
    C38 24 38 38 38 42
    C38 50 50 56 50 56
    C50 56 62 50 62 42
    C62 38 62 24 62 24
    C62 24 50 22 50 22 Z"
    fill="white"/>

  <!-- Checkmark inside shield -->
  <path d="M44 38 L48 43 L56 33"
    fill="none"
    stroke="#1e293b"
    stroke-width="3"
    stroke-linecap="round"
    stroke-linejoin="round"/>
</svg>
